<svg width="475" height="180" viewBox="0 0 475 180" fill="none" xmlns="http://www.w3.org/2000/svg">
<path d="M326 146.937V111.081L406.991 0H453.128V109.576H474.442V146.937H453.128V179.534H409.749V146.937H326ZM413.26 49.6478L369.63 109.576H413.26V49.6478Z" fill="#F4F4F4"/>
<rect x="150.703" y="3" width="174.27" height="174.27" rx="87.1351" fill="url(#paint0_linear_18888_7911)"/>
<rect x="160.703" y="13" width="154" height="154" rx="77" stroke="#191B1F" stroke-width="6" stroke-linecap="round"/>
<rect x="164.461" y="16.7617" width="146.754" height="146.754" rx="73.3769" fill="url(#paint1_linear_18888_7911)"/>
<mask id="mask0_18888_7911" style="mask-type:alpha" maskUnits="userSpaceOnUse" x="150" y="3" width="175" height="175">
<rect x="150.703" y="3" width="174.27" height="174.27" rx="87.1351" fill="url(#paint2_linear_18888_7911)" fill-opacity="0.7"/>
</mask>
<g mask="url(#mask0_18888_7911)">
<rect x="350.984" y="-42.6328" width="256.147" height="262.011" rx="128.074" transform="rotate(120 350.984 -42.6328)" fill="url(#paint3_linear_18888_7911)"/>
</g>
<path d="M275.703 128L258.244 90L275.703 52L237.703 69.4589L199.703 52.0199L217.182 90L199.703 127.98L237.703 110.521L275.703 128Z" fill="white"/>
<path d="M0 146.937V111.081L80.9911 0H127.128V109.576H148.442V146.937H127.128V179.534H83.7493V146.937H0ZM87.2597 49.6478L43.6299 109.576H87.2597V49.6478Z" fill="#F4F4F4"/>
<defs>
<linearGradient id="paint0_linear_18888_7911" x1="150.703" y1="90.1351" x2="324.973" y2="90.1351" gradientUnits="userSpaceOnUse">
<stop stop-color="#8A2BE2"/>
<stop offset="1" stop-color="#FF69B4"/>
</linearGradient>
<linearGradient id="paint1_linear_18888_7911" x1="164.461" y1="90.1386" x2="311.215" y2="90.1386" gradientUnits="userSpaceOnUse">
<stop stop-color="#8A2BE2"/>
<stop offset="1" stop-color="#FF69B4"/>
</linearGradient>
<linearGradient id="paint2_linear_18888_7911" x1="150.703" y1="90.1351" x2="324.973" y2="90.1351" gradientUnits="userSpaceOnUse">
<stop stop-color="#8A2BE2"/>
<stop offset="1" stop-color="#FF69B4"/>
</linearGradient>
<linearGradient id="paint3_linear_18888_7911" x1="387.216" y1="0.461161" x2="570.749" y2="179.887" gradientUnits="userSpaceOnUse">
<stop stop-color="white" stop-opacity="0.2"/>
<stop offset="1" stop-color="white" stop-opacity="0"/>
</linearGradient>
</defs>
</svg>
