<svg width="31" height="30" viewBox="0 0 31 30" fill="none" xmlns="http://www.w3.org/2000/svg">
<g clip-path="url(#clip0_19697_18701)">
<path d="M15.5 30C23.8125 30 30.5 23.3125 30.5 15C30.5 6.68745 23.8125 0 15.5 0C7.18745 0 0.5 6.68745 0.5 15C0.5 23.3125 7.18745 30 15.5 30Z" fill="url(#paint0_linear_19697_18701)" fill-opacity="0.7"/>
<path d="M19.625 17.375C19.625 15.1876 18.3125 14.4376 15.6875 14.1251C13.8125 13.8751 13.4375 13.3751 13.4375 12.5C13.4375 11.6249 14.0625 11.0626 15.3125 11.0626C16.4375 11.0626 17.0625 11.4376 17.375 12.3751C17.4375 12.5626 17.625 12.6875 17.8125 12.6875H18.8124C19.0624 12.6875 19.25 12.5 19.25 12.2501V12.1876C18.9999 10.8125 17.8749 9.75005 16.4375 9.6251V8.1251C16.4375 7.87505 16.25 7.68755 15.9375 7.625H15C14.75 7.625 14.5625 7.8125 14.4999 8.1251V9.56255C12.6249 9.8126 11.4375 11.0626 11.4375 12.6251C11.4375 14.6876 12.6875 15.5 15.3125 15.8126C17.0625 16.1251 17.625 16.5001 17.625 17.5001C17.625 18.5002 16.7499 19.1876 15.5625 19.1876C13.9374 19.1876 13.3749 18.5 13.1874 17.5625C13.125 17.3126 12.9375 17.1875 12.75 17.1875H11.6874C11.4375 17.1875 11.25 17.375 11.25 17.6251V17.6876C11.4999 19.25 12.5 20.375 14.5625 20.6876V22.1876C14.5625 22.4375 14.75 22.625 15.0624 22.6876H15.9999C16.2499 22.6876 16.4375 22.5001 16.5 22.1876V20.6876C18.375 20.375 19.625 19.0625 19.625 17.375Z" fill="white"/>
<path d="M12.3118 23.9374C7.43677 22.1875 4.93672 16.75 6.74932 11.9374C7.68682 9.3124 9.74932 7.31245 12.3118 6.37495C12.5618 6.25 12.6868 6.0625 12.6868 5.7499V4.87495C12.6868 4.6249 12.5618 4.4374 12.3118 4.375C12.2492 4.375 12.1243 4.375 12.0617 4.4374C6.12427 6.3124 2.87422 12.625 4.74922 18.5624C5.87422 22.0624 8.56177 24.7499 12.0617 25.8749C12.3118 25.9999 12.5618 25.8749 12.6242 25.6249C12.6868 25.5625 12.6868 25.4999 12.6868 25.375V24.4999C12.6868 24.3124 12.4993 24.0625 12.3118 23.9374ZM18.9368 4.4374C18.6868 4.31245 18.4367 4.4374 18.3743 4.68745C18.3118 4.75 18.3118 4.8124 18.3118 4.9375V5.81245C18.3118 6.0625 18.4993 6.3124 18.6868 6.4375C23.5618 8.1874 26.0618 13.6249 24.2492 18.4375C23.3117 21.0625 21.2492 23.0624 18.6868 23.9999C18.4367 24.1249 18.3118 24.3124 18.3118 24.625V25.4999C18.3118 25.75 18.4367 25.9375 18.6868 25.9999C18.7493 25.9999 18.8743 25.9999 18.9368 25.9375C24.8743 24.0625 28.1243 17.7499 26.2493 11.8124C25.1243 8.24995 22.3742 5.5624 18.9368 4.4374Z" fill="white"/>
</g>
<defs>
<linearGradient id="paint0_linear_19697_18701" x1="0.5" y1="15" x2="30.5" y2="15" gradientUnits="userSpaceOnUse">
<stop stop-color="#8A2BE2"/>
<stop offset="1" stop-color="#FF69B4"/>
</linearGradient>
<clipPath id="clip0_19697_18701">
<rect width="30" height="30" fill="white" transform="translate(0.5)"/>
</clipPath>
</defs>
</svg>
