<svg xmlns="http://www.w3.org/2000/svg" xmlns:xlink="http://www.w3.org/1999/xlink" role="img" viewBox="0 0 48 48" xml:space="preserve"><!-- Generator: WPGraphicator version: 1.5.1 --><style type="text/css">.wpgraphicator-path-s3h3u86m8cd71ugb5iju path {animation-name: wpgraphicator-path-s3h3u86m8cd71ugb5iju;animation-delay: 0s;animation-duration: 1s;animation-iteration-count: infinite;animation-fill-mode: both;}.wpgraphicator-path-t8jojs5oke6dl1108edla path {animation-name: wpgraphicator-path-t8jojs5oke6dl1108edla;animation-delay: 0s;animation-duration: 1s;animation-iteration-count: infinite;animation-fill-mode: both;}.wpgraphicator-path-edol10j4eijgwx511ujar6 path {animation-name: wpgraphicator-path-edol10j4eijgwx511ujar6;animation-delay: 0s;animation-duration: 1s;animation-iteration-count: infinite;animation-fill-mode: both;}.wpgraphicator-path-to8vifwyl0746lvfqhg9 path {animation-name: wpgraphicator-path-to8vifwyl0746lvfqhg9;animation-delay: 0s;animation-duration: 1s;animation-iteration-count: infinite;animation-fill-mode: both;}.wpgraphicator-path-3muj10b7hqkh9w1iob1198 path {animation-name: wpgraphicator-path-3muj10b7hqkh9w1iob1198;animation-delay: 0s;animation-duration: 1s;animation-iteration-count: infinite;animation-fill-mode: both;}.wpgraphicator-path-ll410dsfe896dxxkv799x path {animation-name: wpgraphicator-path-ll410dsfe896dxxkv799x;animation-delay: 0s;animation-duration: 1s;animation-iteration-count: infinite;animation-fill-mode: both;}.wpgraphicator-path-4phfv7mimcofrt2rvcuf path {animation-name: wpgraphicator-path-4phfv7mimcofrt2rvcuf;animation-delay: 0s;animation-duration: 1s;animation-iteration-count: infinite;animation-fill-mode: both;}.wpgraphicator-path-25wkp8h1fwe47i63cbco path {animation-name: wpgraphicator-path-25wkp8h1fwe47i63cbco;animation-delay: 0s;animation-duration: 1s;animation-iteration-count: infinite;animation-fill-mode: both;}.wpgraphicator-path-sya0hvm3whldxdheffi2 path {animation-name: wpgraphicator-path-sya0hvm3whldxdheffi2;animation-delay: 0s;animation-duration: 1s;animation-iteration-count: infinite;animation-fill-mode: both;}.wpgraphicator-path-3muj10b7hqkh9w1iob1198-scaleX {animation-name: wpgraphicator-path-3muj10b7hqkh9w1iob1198-scaleX;animation-delay: 0s;animation-duration: 1s;animation-iteration-count: infinite;animation-fill-mode: both;}@keyframes wpgraphicator-path-3muj10b7hqkh9w1iob1198-scaleX {0% {animation-timing-function: linear;transform: scaleX(1);}100% {animation-timing-function: linear;transform: scaleX(0);}75% {animation-timing-function: linear;transform: scaleX(1);}}.wpgraphicator-path-ll410dsfe896dxxkv799x-scaleX {animation-name: wpgraphicator-path-ll410dsfe896dxxkv799x-scaleX;animation-delay: 0s;animation-duration: 1s;animation-iteration-count: infinite;animation-fill-mode: both;}@keyframes wpgraphicator-path-ll410dsfe896dxxkv799x-scaleX {0% {animation-timing-function: linear;transform: scaleX(1);}100% {animation-timing-function: linear;transform: scaleX(0);}50% {animation-timing-function: linear;transform: scaleX(1);}75% {animation-timing-function: linear;transform: scaleX(0);}}.wpgraphicator-path-4phfv7mimcofrt2rvcuf-scaleX {animation-name: wpgraphicator-path-4phfv7mimcofrt2rvcuf-scaleX;animation-delay: 0s;animation-duration: 1s;animation-iteration-count: infinite;animation-fill-mode: both;}@keyframes wpgraphicator-path-4phfv7mimcofrt2rvcuf-scaleX {0% {animation-timing-function: linear;transform: scaleX(1);}100% {animation-timing-function: linear;transform: scaleX(0);}25% {animation-timing-function: linear;transform: scaleX(1);}50% {animation-timing-function: linear;transform: scaleX(0);}}.wpgraphicator-path-25wkp8h1fwe47i63cbco-scaleX {animation-name: wpgraphicator-path-25wkp8h1fwe47i63cbco-scaleX;animation-delay: 0s;animation-duration: 1s;animation-iteration-count: infinite;animation-fill-mode: both;}@keyframes wpgraphicator-path-25wkp8h1fwe47i63cbco-scaleX {0% {animation-timing-function: linear;transform: scaleX(1);}100% {animation-timing-function: linear;transform: scaleX(0);}25% {animation-timing-function: linear;transform: scaleX(0);}}.wpgraphicator-path-sya0hvm3whldxdheffi2-angle {animation-name: wpgraphicator-path-sya0hvm3whldxdheffi2-angle;animation-delay: 0s;animation-duration: 1s;animation-iteration-count: infinite;animation-fill-mode: both;}@keyframes wpgraphicator-path-sya0hvm3whldxdheffi2-angle {0% {animation-timing-function: linear;transform: rotate(0deg);}100% {animation-timing-function: linear;transform: rotate(360deg);}}@keyframes wpgraphicator-path-s3h3u86m8cd71ugb5iju{}@keyframes wpgraphicator-path-t8jojs5oke6dl1108edla{}@keyframes wpgraphicator-path-edol10j4eijgwx511ujar6{}@keyframes wpgraphicator-path-to8vifwyl0746lvfqhg9{}@keyframes wpgraphicator-path-3muj10b7hqkh9w1iob1198{0% {}100% {}}@keyframes wpgraphicator-path-ll410dsfe896dxxkv799x{0% {}100% {}}@keyframes wpgraphicator-path-4phfv7mimcofrt2rvcuf{0% {}100% {}}@keyframes wpgraphicator-path-25wkp8h1fwe47i63cbco{0% {}100% {}}@keyframes wpgraphicator-path-sya0hvm3whldxdheffi2{0% {}100% {}}</style><g class="wpgraphicator-path-s3h3u86m8cd71ugb5iju-top" style="transform:translateY(23.98px)"><g class="wpgraphicator-path-s3h3u86m8cd71ugb5iju-left" style="transform:translateX(24px)"><g class="wpgraphicator-path-s3h3u86m8cd71ugb5iju-angle" style="transform:rotate(0deg)"><g class="wpgraphicator-path-s3h3u86m8cd71ugb5iju-scaleY" style="transform:scaleY(1)"><g class="wpgraphicator-path-s3h3u86m8cd71ugb5iju-scaleX" style="transform:scaleX(1)"><g class="wpgraphicator-path-s3h3u86m8cd71ugb5iju-skewY" style="transform:skewY(0deg)"><g class="wpgraphicator-path-s3h3u86m8cd71ugb5iju-skewX" style="transform:skewX(0deg)"><g class="wpgraphicator-path-s3h3u86m8cd71ugb5iju"><linearGradient id="wpgraphicator-gradient-97e310o531154iqpsc9sii" gradientUnits="objectBoundingBox" x1="0.5" y1="0" x2="0.5" y2="1"><stop offset="0%" stop-color="rgb(255,105,180)" stop-opacity="1"></stop><stop offset="100%" stop-color="rgb(138,43,226)" stop-opacity="1"></stop></linearGradient><path d="M 32.58 35.21 L 31.09 33.72 C 30.84 34.04 30.57 34.35 30.27 34.65 C 29.97 34.95 29.66 35.21 29.34 35.47 L 30.83 36.96 C 30.66 37.72 30.87 38.53 31.45 39.12 L 38.16 45.83 C 39.07 46.74 40.55 46.74 41.45 45.83 C 42.36 44.92 42.36 43.45 41.45 42.54 L 34.74 35.83 C 34.15 35.24 33.34 35.04 32.58 35.21 Z M 13.29 8.88 L 13.29 1.45 L 5.86 8.88 L 13.29 8.88 Z" stroke="#000000" stroke-opacity="1" stroke-width="0" stroke-dasharray="none" stroke-dashoffset="0" stroke-linecap="butt" stroke-linejoin="miter" stroke-miterlimit="4" fill="url(#wpgraphicator-gradient-97e310o531154iqpsc9sii)" fill-opacity="1" fill-rule="nonzero" opacity="1" transform=" translate(-24, -23.98)"></path></g></g></g></g></g></g></g></g><g class="wpgraphicator-path-t8jojs5oke6dl1108edla-top" style="transform:translateY(27.21px)"><g class="wpgraphicator-path-t8jojs5oke6dl1108edla-left" style="transform:translateX(22.81px)"><g class="wpgraphicator-path-t8jojs5oke6dl1108edla-angle" style="transform:rotate(0deg)"><g class="wpgraphicator-path-t8jojs5oke6dl1108edla-scaleY" style="transform:scaleY(1)"><g class="wpgraphicator-path-t8jojs5oke6dl1108edla-scaleX" style="transform:scaleX(1)"><g class="wpgraphicator-path-t8jojs5oke6dl1108edla-skewY" style="transform:skewY(0deg)"><g class="wpgraphicator-path-t8jojs5oke6dl1108edla-skewX" style="transform:skewX(0deg)"><g class="wpgraphicator-path-t8jojs5oke6dl1108edla"><linearGradient id="wpgraphicator-gradient-wn293ukrawyrafgheh1n" gradientUnits="objectBoundingBox" x1="0.5" y1="0" x2="0.5" y2="1"><stop offset="0%" stop-color="rgb(255,105,180)" stop-opacity="1"></stop><stop offset="100%" stop-color="rgb(138,43,226)" stop-opacity="1"></stop></linearGradient><path d="M 28.52 21.51 C 27 19.99 24.97 19.14 22.81 19.14 C 20.65 19.14 18.63 19.98 17.11 21.51 C 15.59 23.03 14.74 25.05 14.74 27.21 C 14.74 29.37 15.58 31.4 17.11 32.92 C 18.63 34.44 20.65 35.29 22.81 35.29 C 24.97 35.29 27 34.45 28.52 32.92 C 31.67 29.77 31.67 24.65 28.52 21.51 Z M 27.75 32.15 C 26.44 33.47 24.68 34.2 22.81 34.2 C 20.95 34.2 19.19 33.47 17.88 32.15 C 16.56 30.84 15.83 29.08 15.83 27.21 C 15.83 25.35 16.56 23.59 17.88 22.28 C 19.19 20.96 20.95 20.23 22.81 20.23 C 24.68 20.23 26.44 20.96 27.75 22.28 C 30.47 25 30.47 29.43 27.75 32.15 Z" stroke="#000000" stroke-opacity="1" stroke-width="0" stroke-dasharray="none" stroke-dashoffset="0" stroke-linecap="butt" stroke-linejoin="miter" stroke-miterlimit="4" fill="url(#wpgraphicator-gradient-wn293ukrawyrafgheh1n)" fill-opacity="1" fill-rule="nonzero" opacity="1" transform=" translate(-22.81, -27.21)"></path></g></g></g></g></g></g></g></g><g class="wpgraphicator-path-edol10j4eijgwx511ujar6-top" style="transform:translateY(31.61px)"><g class="wpgraphicator-path-edol10j4eijgwx511ujar6-left" style="transform:translateX(27.22px)"><g class="wpgraphicator-path-edol10j4eijgwx511ujar6-angle" style="transform:rotate(0deg)"><g class="wpgraphicator-path-edol10j4eijgwx511ujar6-scaleY" style="transform:scaleY(1)"><g class="wpgraphicator-path-edol10j4eijgwx511ujar6-scaleX" style="transform:scaleX(1)"><g class="wpgraphicator-path-edol10j4eijgwx511ujar6-skewY" style="transform:skewY(0deg)"><g class="wpgraphicator-path-edol10j4eijgwx511ujar6-skewX" style="transform:skewX(0deg)"><g class="wpgraphicator-path-edol10j4eijgwx511ujar6"><linearGradient id="wpgraphicator-gradient-ibm1tajn7s5x11loi5ou2" gradientUnits="objectBoundingBox" x1="0.5" y1="0" x2="0.5" y2="1"><stop offset="0%" stop-color="rgb(255,105,180)" stop-opacity="1"></stop><stop offset="100%" stop-color="rgb(138,43,226)" stop-opacity="1"></stop></linearGradient><path d="M 41.85 42.18 L 35.13 35.45 C 34.82 35.15 34.45 34.92 34.04 34.77 C 33.63 34.63 33.19 34.58 32.76 34.63 L 31.8 33.67 C 34.91 29.34 34.53 23.27 30.65 19.37 C 26.33 15.05 19.3 15.05 14.98 19.37 C 10.66 23.69 10.66 30.72 14.98 35.04 C 17.14 37.2 19.98 38.28 22.81 38.28 C 25.08 38.28 27.35 37.57 29.27 36.19 L 30.24 37.16 C 30.14 38.03 30.44 38.89 31.06 39.51 L 37.78 46.24 C 38.32 46.78 39.05 47.08 39.82 47.08 C 40.58 47.08 41.31 46.78 41.85 46.24 C 42.4 45.69 42.7 44.97 42.7 44.2 C 42.69 43.44 42.38 42.72 41.85 42.18 Z M 15.75 34.28 C 11.85 30.39 11.85 24.04 15.75 20.15 C 17.69 18.2 20.25 17.23 22.81 17.23 C 25.37 17.23 27.92 18.2 29.87 20.15 C 33.76 24.04 33.76 30.39 29.87 34.28 C 25.98 38.17 19.64 38.17 15.75 34.28 Z M 41.08 45.48 C 40.38 46.17 39.24 46.17 38.55 45.48 L 31.83 38.76 C 31.62 38.54 31.47 38.28 31.38 37.99 C 31.3 37.7 31.29 37.39 31.36 37.1 C 31.38 37.01 31.38 36.92 31.35 36.83 C 31.33 36.74 31.28 36.66 31.21 36.6 L 30.15 35.53 C 30.16 35.51 30.17 35.5 30.17 35.48 C 30.33 35.34 30.5 35.21 30.65 35.05 C 30.81 34.89 30.94 34.73 31.08 34.57 C 31.1 34.56 31.12 34.55 31.13 34.54 L 32.2 35.61 C 32.33 35.74 32.52 35.8 32.7 35.75 C 33.3 35.61 33.92 35.8 34.36 36.23 L 41.08 42.95 C 41.24 43.12 41.37 43.31 41.46 43.53 C 41.55 43.75 41.6 43.98 41.6 44.21 C 41.6 44.45 41.55 44.68 41.46 44.9 C 41.37 45.11 41.24 45.31 41.08 45.48 Z" stroke="#000000" stroke-opacity="1" stroke-width="0" stroke-dasharray="none" stroke-dashoffset="0" stroke-linecap="butt" stroke-linejoin="miter" stroke-miterlimit="4" fill="url(#wpgraphicator-gradient-ibm1tajn7s5x11loi5ou2)" fill-opacity="1" fill-rule="nonzero" opacity="1" transform=" translate(-27.22, -31.61)"></path></g></g></g></g></g></g></g></g><g class="wpgraphicator-path-to8vifwyl0746lvfqhg9-top" style="transform:translateY(22.57px)"><g class="wpgraphicator-path-to8vifwyl0746lvfqhg9-left" style="transform:translateX(22.01px)"><g class="wpgraphicator-path-to8vifwyl0746lvfqhg9-angle" style="transform:rotate(0deg)"><g class="wpgraphicator-path-to8vifwyl0746lvfqhg9-scaleY" style="transform:scaleY(1)"><g class="wpgraphicator-path-to8vifwyl0746lvfqhg9-scaleX" style="transform:scaleX(1)"><g class="wpgraphicator-path-to8vifwyl0746lvfqhg9-skewY" style="transform:skewY(0deg)"><g class="wpgraphicator-path-to8vifwyl0746lvfqhg9-skewX" style="transform:skewX(0deg)"><g class="wpgraphicator-path-to8vifwyl0746lvfqhg9"><linearGradient id="wpgraphicator-gradient-njv11hlrt53uy5bhjyqxt" gradientUnits="objectBoundingBox" x1="0.5" y1="0" x2="0.5" y2="1"><stop offset="0%" stop-color="rgb(255,105,180)" stop-opacity="1"></stop><stop offset="100%" stop-color="rgb(138,43,226)" stop-opacity="1"></stop></linearGradient><path d="M 32.92 43.16 L 9.3 43.16 L 9.3 41.35 L 30.02 41.35 C 30.32 41.35 30.57 41.11 30.57 40.81 C 30.57 40.51 30.32 40.26 30.02 40.26 L 6.4 40.26 L 6.4 9.44 L 13.29 9.44 C 13.59 9.44 13.84 9.19 13.84 8.89 L 13.84 2 L 34.73 2 L 34.73 33.56 C 34.73 33.86 34.97 34.11 35.27 34.11 C 35.57 34.11 35.82 33.86 35.82 33.56 L 35.82 4.89 L 37.62 4.89 L 37.62 36.19 C 37.62 36.49 37.87 36.73 38.17 36.73 C 38.47 36.73 38.71 36.49 38.71 36.19 L 38.71 4.35 C 38.71 4.05 38.47 3.8 38.17 3.8 L 35.82 3.8 L 35.82 1.45 C 35.82 1.16 35.57 0.91 35.27 0.91 L 13.3 0.91 C 13.16 0.91 13.02 0.97 12.92 1.07 L 5.47 8.51 C 5.37 8.61 5.31 8.75 5.31 8.89 L 5.31 40.8 C 5.31 41.1 5.56 41.35 5.85 41.35 L 8.2 41.35 L 8.2 43.69 C 8.2 43.99 8.45 44.24 8.75 44.24 L 32.91 44.24 C 33.21 44.24 33.45 43.99 33.45 43.69 C 33.45 43.4 33.21 43.16 32.92 43.16 Z M 12.76 2.77 L 12.76 8.35 L 7.17 8.35 L 12.76 2.77 Z" stroke="#000000" stroke-opacity="1" stroke-width="0" stroke-dasharray="none" stroke-dashoffset="0" stroke-linecap="butt" stroke-linejoin="miter" stroke-miterlimit="4" fill="url(#wpgraphicator-gradient-njv11hlrt53uy5bhjyqxt)" fill-opacity="1" fill-rule="nonzero" opacity="1" transform=" translate(-22.01, -22.57)"></path></g></g></g></g></g></g></g></g><g class="wpgraphicator-path-3muj10b7hqkh9w1iob1198-top" style="transform:translateY(13.26px)"><g class="wpgraphicator-path-3muj10b7hqkh9w1iob1198-left" style="transform:translateX(32.89px)"><g class="wpgraphicator-path-3muj10b7hqkh9w1iob1198-angle" style="transform:rotate(0deg)"><g class="wpgraphicator-path-3muj10b7hqkh9w1iob1198-scaleY" style="transform:scaleY(1)"><g class="wpgraphicator-path-3muj10b7hqkh9w1iob1198-scaleX" style="transform:scaleX(1)"><g class="wpgraphicator-path-3muj10b7hqkh9w1iob1198-skewY" style="transform:skewY(0deg)"><g class="wpgraphicator-path-3muj10b7hqkh9w1iob1198-skewX" style="transform:skewX(0deg)"><g class="wpgraphicator-path-3muj10b7hqkh9w1iob1198"><linearGradient id="wpgraphicator-gradient-76ael46fxagt1wmuxvuc" gradientUnits="objectBoundingBox" x1="0.5" y1="0" x2="0.5" y2="1"><stop offset="0%" stop-color="rgb(255,105,180)" stop-opacity="1"></stop><stop offset="100%" stop-color="rgb(138,43,226)" stop-opacity="1"></stop></linearGradient><path d="M 25.1 12.71 L 32.34 12.71 C 32.64 12.71 32.89 12.96 32.89 13.26 C 32.89 13.56 32.64 13.8 32.34 13.8 L 25.1 13.8 C 24.8 13.8 24.55 13.56 24.55 13.26 C 24.55 12.96 24.8 12.71 25.1 12.71 Z" stroke="#000000" stroke-opacity="1" stroke-width="0" stroke-dasharray="none" stroke-dashoffset="0" stroke-linecap="butt" stroke-linejoin="miter" stroke-miterlimit="4" fill="url(#wpgraphicator-gradient-76ael46fxagt1wmuxvuc)" fill-opacity="1" fill-rule="nonzero" opacity="1" transform=" translate(-32.89, -13.26)"></path></g></g></g></g></g></g></g></g><g class="wpgraphicator-path-ll410dsfe896dxxkv799x-top" style="transform:translateY(10.35px)"><g class="wpgraphicator-path-ll410dsfe896dxxkv799x-left" style="transform:translateX(32.89px)"><g class="wpgraphicator-path-ll410dsfe896dxxkv799x-angle" style="transform:rotate(0deg)"><g class="wpgraphicator-path-ll410dsfe896dxxkv799x-scaleY" style="transform:scaleY(1)"><g class="wpgraphicator-path-ll410dsfe896dxxkv799x-scaleX" style="transform:scaleX(1)"><g class="wpgraphicator-path-ll410dsfe896dxxkv799x-skewY" style="transform:skewY(0deg)"><g class="wpgraphicator-path-ll410dsfe896dxxkv799x-skewX" style="transform:skewX(0deg)"><g class="wpgraphicator-path-ll410dsfe896dxxkv799x"><linearGradient id="wpgraphicator-gradient-fmcm5gp7t9q10ru6dxlpg" gradientUnits="objectBoundingBox" x1="0.5" y1="0" x2="0.5" y2="1"><stop offset="0%" stop-color="rgb(255,105,180)" stop-opacity="1"></stop><stop offset="100%" stop-color="rgb(138,43,226)" stop-opacity="1"></stop></linearGradient><path d="M 25.1 9.8 L 32.34 9.8 C 32.64 9.8 32.89 10.05 32.89 10.35 C 32.89 10.65 32.64 10.89 32.34 10.89 L 25.1 10.89 C 24.8 10.89 24.55 10.65 24.55 10.35 C 24.55 10.05 24.8 9.8 25.1 9.8 Z" stroke="#000000" stroke-opacity="1" stroke-width="0" stroke-dasharray="none" stroke-dashoffset="0" stroke-linecap="butt" stroke-linejoin="miter" stroke-miterlimit="4" fill="url(#wpgraphicator-gradient-fmcm5gp7t9q10ru6dxlpg)" fill-opacity="1" fill-rule="nonzero" opacity="1" transform=" translate(-32.89, -10.35)"></path></g></g></g></g></g></g></g></g><g class="wpgraphicator-path-4phfv7mimcofrt2rvcuf-top" style="transform:translateY(7.43px)"><g class="wpgraphicator-path-4phfv7mimcofrt2rvcuf-left" style="transform:translateX(32.89px)"><g class="wpgraphicator-path-4phfv7mimcofrt2rvcuf-angle" style="transform:rotate(0deg)"><g class="wpgraphicator-path-4phfv7mimcofrt2rvcuf-scaleY" style="transform:scaleY(1)"><g class="wpgraphicator-path-4phfv7mimcofrt2rvcuf-scaleX" style="transform:scaleX(1)"><g class="wpgraphicator-path-4phfv7mimcofrt2rvcuf-skewY" style="transform:skewY(0deg)"><g class="wpgraphicator-path-4phfv7mimcofrt2rvcuf-skewX" style="transform:skewX(0deg)"><g class="wpgraphicator-path-4phfv7mimcofrt2rvcuf"><linearGradient id="wpgraphicator-gradient-p10li478u7iu50gv1o4fd" gradientUnits="objectBoundingBox" x1="0.5" y1="0" x2="0.5" y2="1"><stop offset="0%" stop-color="rgb(255,105,180)" stop-opacity="1"></stop><stop offset="100%" stop-color="rgb(138,43,226)" stop-opacity="1"></stop></linearGradient><path d="M 18.55 6.89 L 32.34 6.89 C 32.64 6.89 32.89 7.13 32.89 7.43 C 32.89 7.73 32.64 7.98 32.34 7.98 L 18.55 7.98 C 18.25 7.98 18 7.73 18 7.43 C 18 7.13 18.25 6.89 18.55 6.89 Z" stroke="#000000" stroke-opacity="1" stroke-width="0" stroke-dasharray="none" stroke-dashoffset="0" stroke-linecap="butt" stroke-linejoin="miter" stroke-miterlimit="4" fill="url(#wpgraphicator-gradient-p10li478u7iu50gv1o4fd)" fill-opacity="1" fill-rule="nonzero" opacity="1" transform=" translate(-32.89, -7.43)"></path></g></g></g></g></g></g></g></g><g class="wpgraphicator-path-25wkp8h1fwe47i63cbco-top" style="transform:translateY(4.55px)"><g class="wpgraphicator-path-25wkp8h1fwe47i63cbco-left" style="transform:translateX(32.88px)"><g class="wpgraphicator-path-25wkp8h1fwe47i63cbco-angle" style="transform:rotate(0deg)"><g class="wpgraphicator-path-25wkp8h1fwe47i63cbco-scaleY" style="transform:scaleY(1)"><g class="wpgraphicator-path-25wkp8h1fwe47i63cbco-scaleX" style="transform:scaleX(1)"><g class="wpgraphicator-path-25wkp8h1fwe47i63cbco-skewY" style="transform:skewY(0deg)"><g class="wpgraphicator-path-25wkp8h1fwe47i63cbco-skewX" style="transform:skewX(0deg)"><g class="wpgraphicator-path-25wkp8h1fwe47i63cbco"><linearGradient id="wpgraphicator-gradient-rd4lut5to1astjp2gbt1" gradientUnits="objectBoundingBox" x1="0.5" y1="0" x2="0.5" y2="1"><stop offset="0%" stop-color="rgb(255,105,180)" stop-opacity="1"></stop><stop offset="100%" stop-color="rgb(138,43,226)" stop-opacity="1"></stop></linearGradient><path d="M 32.33 5.09 L 18.55 5.09 C 18.25 5.09 18.01 4.84 18.01 4.55 C 18.01 4.25 18.25 4 18.55 4 L 32.33 4 C 32.63 4 32.88 4.25 32.88 4.55 C 32.88 4.84 32.63 5.09 32.33 5.09 Z" stroke="#000000" stroke-opacity="1" stroke-width="0" stroke-dasharray="none" stroke-dashoffset="0" stroke-linecap="butt" stroke-linejoin="miter" stroke-miterlimit="4" fill="url(#wpgraphicator-gradient-rd4lut5to1astjp2gbt1)" fill-opacity="1" fill-rule="nonzero" opacity="1" transform=" translate(-32.88, -4.55)"></path></g></g></g></g></g></g></g></g><g class="wpgraphicator-path-sya0hvm3whldxdheffi2-top" style="transform:translateY(27.07px)"><g class="wpgraphicator-path-sya0hvm3whldxdheffi2-left" style="transform:translateX(22.97px)"><g class="wpgraphicator-path-sya0hvm3whldxdheffi2-angle" style="transform:rotate(0deg)"><g class="wpgraphicator-path-sya0hvm3whldxdheffi2-scaleY" style="transform:scaleY(1)"><g class="wpgraphicator-path-sya0hvm3whldxdheffi2-scaleX" style="transform:scaleX(1)"><g class="wpgraphicator-path-sya0hvm3whldxdheffi2-skewY" style="transform:skewY(0deg)"><g class="wpgraphicator-path-sya0hvm3whldxdheffi2-skewX" style="transform:skewX(0deg)"><g class="wpgraphicator-path-sya0hvm3whldxdheffi2"><linearGradient id="wpgraphicator-gradient-nov9y1011yj110xugk3vmt2" gradientUnits="objectBoundingBox" x1="0.5" y1="0" x2="0.5" y2="1"><stop offset="0%" stop-color="rgb(255,105,180)" stop-opacity="1"></stop><stop offset="100%" stop-color="rgb(138,43,226)" stop-opacity="1"></stop></linearGradient><path d="M 26.13 23.9 C 26.03 23.8 25.89 23.74 25.75 23.74 C 25.6 23.74 25.47 23.8 25.36 23.9 L 22.97 26.29 L 20.58 23.9 C 20.37 23.69 20.02 23.69 19.81 23.9 C 19.6 24.11 19.6 24.46 19.81 24.67 L 22.2 27.07 L 19.81 29.46 C 19.6 29.67 19.6 30.02 19.81 30.23 C 19.92 30.34 20.05 30.39 20.19 30.39 C 20.33 30.39 20.47 30.34 20.58 30.23 L 22.97 27.84 L 25.36 30.23 C 25.47 30.34 25.61 30.39 25.75 30.39 C 25.89 30.39 26.03 30.34 26.13 30.23 C 26.35 30.02 26.35 29.67 26.13 29.46 L 23.74 27.07 L 26.13 24.67 C 26.35 24.46 26.35 24.12 26.13 23.9 Z" stroke="#000000" stroke-opacity="1" stroke-width="0" stroke-dasharray="none" stroke-dashoffset="0" stroke-linecap="butt" stroke-linejoin="miter" stroke-miterlimit="4" fill="url(#wpgraphicator-gradient-nov9y1011yj110xugk3vmt2)" fill-opacity="1" fill-rule="nonzero" opacity="1" transform=" translate(-22.97, -27.07)"></path></g></g></g></g></g></g></g></g></svg>