<svg width="225" height="275" viewBox="0 0 225 275" fill="none" xmlns="http://www.w3.org/2000/svg">
<g clip-path="url(#clip0_21459_3590)">
<path d="M230.172 173.881L47.6647 21.1367L0.211512 259.091L230.172 173.881Z" fill="url(#paint0_linear_21459_3590)"/>
<path d="M58.8212 44C58.8537 44 58.8861 43.9963 58.9186 43.9875C58.966 43.975 59.0097 43.9526 59.0497 43.9226C59.0884 43.8926 59.1208 43.8552 59.1458 43.8127L70.9503 23.3661C70.999 23.28 71.0128 23.1776 70.9878 23.0827C70.9616 22.9866 70.8992 22.9055 70.813 22.8555L50.366 11.0499C50.2799 11 50.1775 10.9875 50.0814 11.0125C49.9865 11.0387 49.9041 11.1011 49.8554 11.186L38.0509 31.6326C38.0009 31.7188 37.9872 31.8211 38.0122 31.9173C38.0384 32.0134 38.1008 32.0945 38.1869 32.1445L58.6339 43.9488C58.6901 43.9813 58.755 43.9988 58.8212 43.9988V44ZM70.1139 23.3212L58.6839 43.1187L38.8885 31.6851L50.3161 11.8863L70.1139 23.3212Z" fill="#20DB74"/>
<path d="M0.412828 259.642L230.371 174.431C230.468 174.396 230.555 174.334 230.621 174.253C230.686 174.172 230.731 174.077 230.749 173.974C230.767 173.871 230.757 173.766 230.721 173.669C230.686 173.572 230.624 173.485 230.545 173.418L48.0402 20.6758L47.2783 21.588L229.004 173.673L-0.000754864 258.528L0.412828 259.642Z" fill="url(#paint1_linear_21459_3590)"/>
<path d="M1.996 253.152L2.19388 252.181L1.02837 251.949L0.830491 252.919L1.996 253.152ZM3.34948 246.359L3.54736 245.39L2.38383 245.156L2.18595 246.128L3.34948 246.359ZM4.70494 239.568L4.90282 238.596L3.73731 238.365L3.53943 239.334L4.70494 239.568ZM6.05842 232.775L6.2563 231.805L5.09277 231.574L4.8949 232.543L6.05842 232.775ZM7.41391 225.984L7.61179 225.014L6.44628 224.781L6.2484 225.752L7.41391 225.984ZM8.76739 219.192L8.96527 218.221L7.80174 217.989L7.60386 218.959L8.76739 219.192ZM10.1229 212.399L10.3207 211.43L9.15522 211.196L8.95734 212.168L10.1229 212.399ZM11.4763 205.608L11.6742 204.636L10.5107 204.405L10.3128 205.375L11.4763 205.608ZM12.8318 198.815L13.0297 197.845L11.8642 197.614L11.6663 198.583L12.8318 198.815ZM14.1853 192.024L14.3832 191.054L13.2197 190.821L13.0218 191.79L14.1853 192.024ZM15.5408 185.231L15.7386 184.261L14.5731 184.029L14.3753 184.999L15.5408 185.231ZM16.8942 178.439L17.0921 177.47L15.9286 177.236L15.7307 178.208L16.8942 178.439ZM18.2497 171.648L18.4476 170.677L17.2821 170.445L17.0842 171.415L18.2497 171.648ZM19.6032 164.855L19.8011 163.885L18.6376 163.654L18.4397 164.624L19.6032 164.855ZM20.9587 158.064L21.1565 157.092L19.991 156.861L19.7932 157.83L20.9587 158.064ZM22.3122 151.271L22.51 150.301L21.3465 150.07L21.1486 151.039L22.3122 151.271ZM23.6676 144.479L23.8655 143.51L22.7 143.276L22.5021 144.248L23.6676 144.479ZM25.0211 137.688L25.219 136.717L24.0555 136.485L23.8576 137.455L25.0211 137.688ZM26.3766 130.895L26.5745 129.926L25.409 129.692L25.2111 130.664L26.3766 130.895ZM27.7301 124.104L27.9279 123.132L26.7644 122.901L26.5665 123.87L27.7301 124.104ZM29.0855 117.311L29.2834 116.341L28.1179 116.11L27.92 117.079L29.0855 117.311ZM30.439 110.52L30.6369 109.55L29.4734 109.317L29.2755 110.288L30.439 110.52ZM31.7945 103.726L31.9924 102.757L30.8288 102.525L30.631 103.495L31.7945 103.726ZM33.148 96.9353L33.3458 95.9657L32.1823 95.7322L31.9844 96.7037L33.148 96.9353ZM34.5034 90.1441L34.7013 89.1725L33.5378 88.941L33.3399 89.9106L34.5034 90.1441ZM35.8569 83.3509L36.0548 82.3813L34.8893 82.1498L34.6914 83.1194L35.8569 83.3509ZM37.2124 76.5597L37.4103 75.5881L36.2468 75.3566L36.0489 76.3282L37.2124 76.5597ZM38.5659 69.7666L38.7638 68.797L37.5983 68.5654L37.4004 69.535L38.5659 69.7666ZM39.9214 62.9754L40.1192 62.0058L38.9557 61.7723L38.7578 62.7439L39.9214 62.9754ZM41.2748 56.1842L41.4727 55.2126L40.3072 54.9811L40.1093 55.9507L41.2748 56.1842ZM42.6303 49.391L42.8282 48.4214L41.6647 48.1879L41.4668 49.1595L42.6303 49.391ZM43.9878 42.5998L44.1856 41.6283L43.0201 41.3967L42.8222 42.3663L43.9878 42.5998ZM45.3393 35.8146L45.5371 34.845L44.3736 34.6135L44.1757 35.5831L45.3393 35.8146ZM46.6927 29.0234L46.8906 28.0538L45.7251 27.8203L45.5272 28.7919L46.6927 29.0234Z" fill="#3E4147"/>
<path d="M162.261 67.3086C162.261 74.2561 163.668 85.5134 157.689 95.0116C151.709 104.51 134.469 145.273 133.415 148.983C132.386 152.614 135.878 167.611 135.312 180.347C135.285 180.988 135.334 181.631 135.463 182.26C136.078 185.339 137.901 195.136 137.901 203.101L140.01 223.765C140.01 223.765 151.59 221.507 150.3 203.101C150.3 203.101 152.587 191.928 151.18 181.55L153.731 166.511C153.731 166.511 160.239 176.537 164.373 174.691C164.373 174.691 159.242 194.732 166.306 198.999C174.178 203.748 178.531 184.189 179.851 177.066C181.171 169.942 184.072 162.553 184.072 162.553C184.072 162.553 199.449 153.815 194.7 144.978C194.7 144.978 201.192 136.522 195.293 130.301C195.293 130.301 197.828 119.459 195.153 110.579C192.408 101.476 195.487 91.5823 197.828 78.653L162.261 67.3086Z" fill="#FFF8EA"/>
<path d="M23.4088 276.357L24.3289 275.993L23.8936 274.889L22.9715 275.251L23.4088 276.357ZM29.8497 273.814L30.7718 273.452L30.3345 272.346L29.4144 272.71L29.8497 273.814ZM36.2926 271.273L37.2128 270.909L36.7774 269.805L35.8573 270.167L36.2926 271.273ZM42.7355 268.731L43.6557 268.367L43.2203 267.262L42.3002 267.627L42.7355 268.731ZM49.1785 266.188L50.0986 265.826L49.6633 264.722L48.7431 265.084L49.1785 266.188ZM55.6194 263.647L56.5415 263.283L56.1042 262.179L55.1841 262.543L55.6194 263.647ZM62.0623 261.104L62.9824 260.742L62.5471 259.638L61.627 260L62.0623 261.104ZM68.5052 258.564L69.4254 258.2L68.99 257.095L68.0699 257.46L68.5052 258.564ZM74.9481 256.021L75.8683 255.659L75.4329 254.555L74.5128 254.917L74.9481 256.021ZM81.3871 253.48L82.3092 253.116L81.8719 252.012L80.9518 252.376L81.3871 253.48ZM87.83 250.937L88.7502 250.575L88.3148 249.471L87.3947 249.833L87.83 250.937ZM94.2729 248.397L95.1931 248.033L94.7578 246.928L93.8376 247.293L94.2729 248.397ZM100.716 245.854L101.636 245.492L101.201 244.388L100.281 244.75L100.716 245.854ZM107.159 243.313L108.079 242.949L107.642 241.845L106.716 242.201L107.159 243.313ZM113.6 240.77L114.52 240.408L114.085 239.304L113.164 239.666L113.6 240.77ZM120.043 238.23L120.963 237.866L120.527 236.761L119.607 237.124L120.043 238.23ZM126.486 235.687L127.406 235.325L126.97 234.219L126.05 234.583L126.486 235.687ZM132.928 233.146L133.849 232.782L133.411 231.678L132.493 232.04L132.928 233.146ZM139.365 230.603L140.286 230.239L139.85 229.135L138.93 229.499L139.365 230.603ZM145.808 228.061L146.729 227.699L146.293 226.594L145.373 226.957L145.808 228.061ZM152.251 225.52L153.171 225.156L152.736 224.052L151.816 224.416L152.251 225.52ZM158.694 222.977L159.614 222.615L159.179 221.511L158.257 221.873L158.694 222.977ZM165.133 220.435L166.055 220.07L165.618 218.966L164.698 219.33L165.133 220.435ZM171.576 217.892L172.496 217.53L172.061 216.426L171.141 216.788L171.576 217.892ZM178.019 215.351L178.939 214.987L178.504 213.883L177.584 214.247L178.019 215.351ZM184.462 212.808L185.382 212.446L184.947 211.342L184.027 211.704L184.462 212.808ZM190.903 210.268L191.825 209.903L191.388 208.799L190.468 209.163L190.903 210.268ZM197.344 207.727L198.264 207.365L197.829 206.26L196.908 206.623L197.344 207.727ZM203.787 205.186L204.707 204.822L204.272 203.718L203.351 204.082L203.787 205.186ZM210.23 202.643L211.15 202.281L210.714 201.177L209.794 201.539L210.23 202.643ZM216.673 200.103L217.593 199.738L217.155 198.634L216.235 198.998L216.673 200.103ZM223.114 197.56L224.034 197.198L223.598 196.092L222.678 196.456L223.114 197.56ZM229.556 195.019L230.477 194.655L230.041 193.551L229.121 193.913L229.556 195.019Z" fill="#3E4147"/>
<path d="M17.9531 264.475C18.0797 264.475 18.2024 264.433 18.3053 264.356C18.4062 264.281 18.4814 264.174 18.519 264.053L24.5048 244.432C24.5325 244.343 24.5384 244.248 24.5226 244.157C24.5068 244.066 24.4692 243.979 24.4138 243.904C24.3584 243.83 24.2871 243.769 24.204 243.727C24.1209 243.686 24.0299 243.664 23.9369 243.664H11.9672C11.8742 243.664 11.7832 243.686 11.7001 243.727C11.617 243.769 11.5458 243.83 11.4903 243.905C11.4349 243.979 11.3973 244.066 11.3815 244.157C11.3657 244.25 11.3716 244.343 11.3993 244.432L17.3852 264.053C17.4208 264.174 17.496 264.281 17.5989 264.358C17.7017 264.433 17.8244 264.475 17.9531 264.475ZM23.1355 244.851L17.9531 261.845L12.7706 244.851H23.1355Z" fill="#FF7D5D"/>
<path d="M5.61531 206.068H101.873C103.308 206.066 104.681 205.496 105.696 204.481C106.709 203.468 107.281 202.093 107.281 200.66V66.2791C107.281 64.8445 106.709 63.4712 105.696 62.4561C104.683 61.443 103.308 60.8711 101.873 60.8711H5.61531C4.18069 60.8711 2.80545 61.443 1.79231 62.4561C0.779172 63.4692 0.20928 64.8445 0.207301 66.2791V200.66C0.20928 202.093 0.779172 203.468 1.79231 204.481C2.80545 205.496 4.18069 206.066 5.61531 206.068ZM101.873 62.0584C102.991 62.0584 104.066 62.5056 104.855 63.2971C105.647 64.0886 106.092 65.1611 106.094 66.2791V200.66C106.094 201.778 105.647 202.851 104.855 203.642C104.064 204.434 102.991 204.879 101.873 204.881H5.61531C4.49532 204.879 3.42282 204.434 2.63131 203.642C1.84178 202.851 1.39655 201.778 1.39457 200.66V66.2791C1.39655 65.1611 1.84178 64.0866 2.63131 63.2971C3.42282 62.5056 4.49532 62.0603 5.61531 62.0584H101.873Z" fill="#FF69B4"/>
<path d="M1 69.4414H106.5V70.6287H1V69.4414Z" fill="#FF69B4"/>
<path d="M24.7138 67.3067C23.8392 67.3067 23.1308 66.5983 23.1308 65.7237C23.1308 64.849 23.8392 64.1406 24.7138 64.1406C25.5885 64.1406 26.2969 64.849 26.2969 65.7237C26.2969 66.5983 25.5885 67.3067 24.7138 67.3067Z" fill="#FF69B4"/>
<path d="M16.3701 67.3067C15.4955 67.3067 14.7871 66.5983 14.7871 65.7237C14.7871 64.849 15.4955 64.1406 16.3701 64.1406C17.2447 64.1406 17.9531 64.849 17.9531 65.7237C17.9531 66.5983 17.2447 67.3067 16.3701 67.3067Z" fill="#FF69B4"/>
<path d="M8.01072 67.3067C7.1361 67.3067 6.4277 66.5983 6.4277 65.7237C6.4277 64.849 7.1361 64.1406 8.01072 64.1406C8.88535 64.1406 9.59375 64.849 9.59375 65.7237C9.59375 66.5983 8.88535 67.3067 8.01072 67.3067Z" fill="#FF69B4"/>
<path d="M91.9989 121.922H99.9141V164.927H91.9989V121.922Z" fill="#FF7D5D"/>
<path d="M91.999 165.524H99.9142C100.072 165.524 100.223 165.461 100.334 165.35C100.444 165.239 100.508 165.089 100.508 164.931V121.926C100.508 121.767 100.444 121.617 100.334 121.506C100.223 121.395 100.071 121.332 99.9142 121.332H91.999C91.8407 121.332 91.6904 121.395 91.5795 121.506C91.4687 121.617 91.4054 121.767 91.4054 121.926V164.931C91.4054 165.089 91.4687 165.239 91.5795 165.35C91.6904 165.461 91.8427 165.524 91.999 165.524ZM99.3205 164.337H92.5927V122.519H99.3205V164.337Z" fill="#01227C"/>
<path d="M76.9599 110.578H84.875V153.583H76.9599V110.578Z" fill="#FF7D5D"/>
<path d="M76.96 154.175H84.8751C85.0334 154.175 85.1838 154.111 85.2946 154C85.4054 153.89 85.4688 153.739 85.4688 153.581V110.574C85.4688 110.416 85.4054 110.265 85.2946 110.155C85.1838 110.044 85.0314 109.98 84.8751 109.98H76.96C76.8017 109.98 76.6513 110.044 76.5405 110.155C76.4297 110.265 76.3663 110.416 76.3663 110.574V153.581C76.3663 153.739 76.4297 153.89 76.5405 154C76.6513 154.111 76.8037 154.175 76.96 154.175ZM84.2815 152.987H77.5536V111.168H84.2815V152.987Z" fill="#FF7D5D"/>
<path d="M46.8817 84.9883H54.7969V117.704H46.8817V84.9883Z" fill="#FF7D5D"/>
<path d="M46.8819 118.297H54.797C54.9533 118.297 55.1057 118.234 55.2165 118.123C55.3273 118.012 55.3906 117.862 55.3906 117.703V84.9882C55.3906 84.8299 55.3273 84.6795 55.2165 84.5687C55.1057 84.4579 54.9533 84.3945 54.797 84.3945H46.8819C46.7236 84.3945 46.5732 84.4579 46.4624 84.5687C46.3496 84.6795 46.2882 84.8299 46.2882 84.9882V117.703C46.2882 117.862 46.3496 118.012 46.4624 118.123C46.5732 118.234 46.7236 118.297 46.8819 118.297ZM54.2034 117.11H47.4755V85.5818H54.2034V117.11Z" fill="#FF7D5D"/>
<path d="M46.8817 117.699H54.7969V150.943H46.8817V117.699Z" fill="#20DB74"/>
<path d="M46.8819 151.536H54.797C54.9533 151.536 55.1057 151.473 55.2165 151.362C55.3273 151.251 55.3906 151.101 55.3906 150.943V117.699C55.3906 117.541 55.3273 117.39 55.2165 117.28C55.1057 117.169 54.9533 117.105 54.797 117.105H46.8819C46.7236 117.105 46.5732 117.169 46.4624 117.28C46.3496 117.39 46.2882 117.541 46.2882 117.699V150.943C46.2882 151.101 46.3496 151.251 46.4624 151.362C46.5732 151.473 46.7236 151.536 46.8819 151.536ZM54.2034 150.349H47.4755V118.293H54.2034V150.349Z" fill="#20DB74"/>
<path d="M31.8505 129.168H39.7656V163.225H31.8505V129.168Z" fill="#20DB74"/>
<path d="M31.8506 163.822H39.7657C39.9221 163.822 40.0744 163.759 40.1852 163.648C40.2961 163.537 40.3594 163.385 40.3594 163.229V129.172C40.3594 129.013 40.2961 128.863 40.1852 128.752C40.0744 128.641 39.9221 128.578 39.7657 128.578H31.8506C31.6923 128.578 31.5419 128.641 31.4311 128.752C31.3183 128.863 31.257 129.015 31.257 129.172V163.229C31.257 163.387 31.3183 163.537 31.4311 163.648C31.5419 163.759 31.6923 163.822 31.8506 163.822ZM39.1721 162.635H32.4442V129.765H39.1721V162.635Z" fill="#20DB74"/>
<path d="M16.8036 136.555H24.7188V180.23H16.8036V136.555Z" fill="#20DB74"/>
<path d="M16.8037 180.824H24.7189C24.8752 180.824 25.0276 180.761 25.1384 180.65C25.2492 180.539 25.3125 180.389 25.3125 180.23V136.555C25.3125 136.396 25.2492 136.246 25.1384 136.135C25.0276 136.024 24.8752 135.961 24.7189 135.961H16.8037C16.6454 135.961 16.495 136.024 16.3842 136.135C16.2714 136.246 16.2101 136.398 16.2101 136.555V180.23C16.2101 180.389 16.2714 180.539 16.3842 180.65C16.495 180.761 16.6454 180.824 16.8037 180.824ZM24.1252 179.637H17.3974V137.148H24.1252V179.637Z" fill="#20DB74"/>
<path d="M61.9208 95.0117H69.8359V104.773H61.9208V95.0117Z" fill="#FF7D5D"/>
<path d="M61.9209 105.367H69.8361C69.9944 105.367 70.1447 105.303 70.2556 105.192C70.3664 105.082 70.4297 104.931 70.4297 104.773V95.0116C70.4297 94.8533 70.3664 94.7029 70.2556 94.5921C70.1447 94.4813 69.9924 94.418 69.8361 94.418H61.9209C61.7626 94.418 61.6122 94.4813 61.5014 94.5921C61.3886 94.7029 61.3273 94.8533 61.3273 95.0116V104.773C61.3273 104.931 61.3886 105.082 61.5014 105.192C61.6122 105.303 61.7626 105.367 61.9209 105.367ZM69.2424 104.179H62.5146V95.6052H69.2424V104.179Z" fill="#FF7D5D"/>
<path d="M95.3596 115.59H96.5469V121.922H95.3596V115.59Z" fill="#FF7D5D"/>
<path d="M95.3596 164.926H96.5469V171.258H95.3596V164.926Z" fill="#FF7D5D"/>
<path d="M80.3284 104.246H81.5156V110.578H80.3284V104.246Z" fill="#FF7D5D"/>
<path d="M50.2502 78.6523H51.4375V84.9845H50.2502V78.6523Z" fill="#FF7D5D"/>
<path d="M50.2502 150.418H51.4375V156.75H50.2502V150.418Z" fill="#20DB74"/>
<path d="M35.2034 122.836H36.3906V129.168H35.2034V122.836Z" fill="#20DB74"/>
<path d="M35.2034 163.223H36.3906V169.555H35.2034V163.223Z" fill="#20DB74"/>
<path d="M20.1721 130.301H21.3594V136.633H20.1721V130.301Z" fill="#20DB74"/>
<path d="M20.1721 179.734H21.3594V186.066H20.1721V179.734Z" fill="#20DB74"/>
<path d="M80.3284 153.586H81.5156V159.918H80.3284V153.586Z" fill="#FF7D5D"/>
<path d="M65.2815 84.9883H66.4688V95.0148H65.2815V84.9883Z" fill="#FF7D5D"/>
<path d="M65.2815 104.246H66.4688V114.273H65.2815V104.246Z" fill="#FF7D5D"/>
<path d="M121.105 233.941H164.375V238.162H121.105V233.941Z" fill="#FF69B4"/>
<path d="M121.105 238.758H164.375C164.533 238.758 164.684 238.694 164.795 238.584C164.905 238.473 164.969 238.32 164.969 238.164V233.941C164.969 233.783 164.905 233.633 164.795 233.522C164.684 233.409 164.531 233.348 164.375 233.348H121.105C120.947 233.348 120.796 233.409 120.686 233.522C120.575 233.633 120.511 233.783 120.511 233.941V238.164C120.511 238.32 120.575 238.473 120.686 238.584C120.796 238.694 120.947 238.758 121.105 238.758ZM163.781 237.57H121.699V234.535H163.781V237.57Z" fill="#FF69B4"/>
<path d="M150.305 223.762H135.179C132.755 223.762 130.43 224.723 128.717 226.437C127.001 228.149 126.037 230.474 126.033 232.898V233.931H159.453V232.898C159.451 230.474 158.486 228.149 156.77 226.435C155.054 224.723 152.729 223.762 150.305 223.762Z" fill="#FF69B4"/>
<path d="M126.034 234.534H159.453C159.612 234.534 159.762 234.471 159.873 234.36C159.984 234.249 160.047 234.097 160.047 233.94V232.91C160.045 230.327 159.018 227.85 157.191 226.025C155.365 224.199 152.89 223.17 150.307 223.168H135.18C132.597 223.17 130.122 224.199 128.295 226.025C126.469 227.85 125.442 230.327 125.44 232.91V233.94C125.44 234.097 125.503 234.249 125.614 234.36C125.725 234.471 125.877 234.534 126.034 234.534ZM158.86 233.347H126.627V232.91C126.629 230.642 127.532 228.467 129.134 226.864C130.737 225.26 132.912 224.357 135.18 224.355H150.307C152.575 224.357 154.75 225.26 156.352 226.864C157.955 228.467 158.858 230.642 158.86 232.91V233.347Z" fill="#FF69B4"/>
<path d="M84.8759 238.758H121.109V237.571H84.8759C74.887 237.571 67.2113 234.911 62.0585 229.669C56.7514 224.269 54.1533 216.131 54.3413 205.481L53.154 205.461C52.9561 216.441 55.6769 224.867 61.2156 230.502C66.5959 235.98 74.5565 238.758 84.8759 238.758Z" fill="#FF69B4"/>
<path d="M168.776 200.189C169.627 200.187 170.464 199.979 171.216 199.583C176.843 196.688 179.21 183.858 180.346 177.692L180.443 177.169C181.62 170.815 184.1 164.159 184.559 162.958C187.113 161.424 189.478 159.59 191.597 157.494C195.925 153.115 197.233 148.813 195.4 145.028C196.431 143.526 197.233 141.88 197.775 140.142C198.962 136.256 198.329 132.799 195.937 130.124C196.332 128.25 198.189 118.603 195.717 110.403C193.54 103.191 195.078 95.5623 197.021 85.9078C197.48 83.6164 197.957 81.2498 198.406 78.7565L197.249 78.5547C196.799 81.0361 196.325 83.3987 195.864 85.6783C193.968 95.1072 192.327 103.252 194.587 110.749C197.189 119.381 194.744 130.058 194.72 130.165C194.698 130.26 194.698 130.361 194.724 130.456C194.749 130.551 194.799 130.638 194.866 130.709C200.357 136.495 194.298 144.535 194.237 144.616C194.168 144.707 194.126 144.816 194.116 144.931C194.106 145.046 194.132 145.159 194.186 145.259C198.604 153.485 183.935 161.954 183.787 162.038C183.668 162.105 183.577 162.212 183.528 162.338C183.498 162.412 180.589 169.858 179.275 176.958L179.178 177.48C178.153 182.989 175.779 195.897 170.674 198.528C169.405 199.181 168.062 199.16 166.564 198.461L166.063 199.536C166.908 199.951 167.834 200.173 168.776 200.189Z" fill="black"/>
<path d="M205.451 49.8945L205.453 80.2352H153.476V70.0346H146.881L143.452 49.8945H205.451Z" fill="#3E4147"/>
<path d="M153.865 59.4609C154.374 59.4609 154.871 59.3105 155.294 59.0275C155.718 58.7446 156.046 58.3429 156.242 57.8739C156.436 57.4029 156.487 56.8865 156.388 56.3878C156.289 55.8892 156.044 55.4301 155.684 55.07C155.324 54.7098 154.867 54.4645 154.366 54.3655C153.867 54.2666 153.349 54.318 152.88 54.5119C152.409 54.7059 152.007 55.0363 151.726 55.4598C151.443 55.8832 151.293 56.3799 151.293 56.8885C151.293 57.5711 151.564 58.2241 152.047 58.707C152.53 59.1898 153.183 59.4609 153.865 59.4609ZM153.865 55.5033C154.139 55.5033 154.408 55.5844 154.635 55.7368C154.863 55.8892 155.041 56.1049 155.146 56.3581C155.251 56.6114 155.278 56.8904 155.225 57.1596C155.171 57.4287 155.039 57.674 154.845 57.868C154.651 58.0619 154.404 58.1925 154.137 58.2479C153.867 58.3013 153.59 58.2736 153.337 58.1687C153.084 58.0639 152.868 57.8858 152.716 57.6582C152.563 57.4306 152.482 57.1615 152.482 56.8885C152.482 56.5204 152.629 56.1682 152.888 55.909C153.147 55.6497 153.499 55.5033 153.867 55.5033H153.865Z" fill="black" fill-opacity="0.4"/>
<path d="M153.865 66.7187C154.374 66.7187 154.871 66.5683 155.294 66.2853C155.718 66.0024 156.046 65.6007 156.242 65.1317C156.436 64.6608 156.487 64.1443 156.388 63.6456C156.289 63.147 156.044 62.6879 155.684 62.3278C155.324 61.9676 154.867 61.7223 154.366 61.6233C153.867 61.5244 153.349 61.5758 152.88 61.7698C152.409 61.9637 152.007 62.2941 151.726 62.7176C151.443 63.1411 151.293 63.6377 151.293 64.1463C151.293 64.829 151.564 65.482 152.047 65.9648C152.53 66.4476 153.183 66.7187 153.865 66.7187ZM153.865 62.7611C154.139 62.7611 154.408 62.8423 154.635 62.9946C154.863 63.147 155.041 63.3627 155.146 63.616C155.251 63.8692 155.278 64.1483 155.225 64.4174C155.171 64.6865 155.039 64.9319 154.845 65.1258C154.651 65.3197 154.404 65.4503 154.137 65.5037C153.869 65.5571 153.59 65.5294 153.337 65.4246C153.084 65.3197 152.868 65.1416 152.716 64.914C152.563 64.6865 152.482 64.4174 152.482 64.1443C152.482 63.7762 152.629 63.424 152.888 63.1648C153.147 62.9056 153.499 62.7591 153.867 62.7591L153.865 62.7611Z" fill="black" fill-opacity="0.4"/>
<path d="M164.864 198.569L165.707 197.731C161.156 193.153 164.916 174.995 164.955 174.811C166.237 169.288 166.7 164.482 166.295 160.922C165.743 156.086 163.703 154.471 162.088 153.969C160.669 153.527 159.353 153.7 158.178 154.481C154.102 157.196 153.179 166.542 153.142 166.948L154.329 167.058C154.329 166.967 155.235 157.879 158.843 155.477C159.717 154.895 160.665 154.776 161.742 155.11C165.523 156.288 166.313 163.742 163.802 174.564C163.631 175.34 159.872 193.538 164.864 198.569Z" fill="#030303"/>
<path d="M184.634 162.757C185.508 160.304 186.019 159.455 186.864 158.05C187.331 157.274 187.913 156.307 188.706 154.821C190.766 150.962 191.182 148.081 191.55 145.54C191.649 144.844 191.748 144.185 191.868 143.541C192.501 140.271 195.826 130.594 195.852 130.497L194.73 130.102C194.591 130.497 191.352 139.954 190.703 143.308C190.572 143.979 190.475 144.65 190.374 145.36C190.02 147.818 189.624 150.588 187.659 154.261C186.88 155.721 186.306 156.673 185.847 157.438C184.964 158.907 184.43 159.793 183.516 162.358L184.634 162.757Z" fill="black"/>
<path d="M168.994 200.116C170.268 200.116 171.634 199.663 172.87 198.37C172.973 198.26 175.304 195.739 175.854 193.847C176.309 192.28 176.658 190.105 175.72 188.645C175.217 187.853 174.424 187.386 173.361 187.23C168.588 186.527 165.614 193.98 164.706 198.02C164.68 198.127 164.686 198.24 164.72 198.345C164.755 198.45 164.819 198.543 164.904 198.614C165.761 199.312 167.298 200.116 168.994 200.116ZM173.187 188.403C173.905 188.51 174.408 188.799 174.721 189.288C175.265 190.133 175.263 191.635 174.721 193.515C174.248 195.137 172.033 197.533 172.012 197.557C169.617 200.058 166.851 198.519 165.958 197.905C166.96 193.807 169.698 187.889 173.193 188.407L173.187 188.403Z" fill="black"/>
<path d="M140.524 223.603C140.58 223.603 140.637 223.595 140.691 223.58C143.55 222.751 145.788 220.241 145.881 220.137C145.978 220.028 146.031 219.887 146.031 219.741C146.031 215.54 144.955 212.16 143.004 210.227C141.896 209.129 140.564 208.551 139.153 208.551H139.104C139.02 208.551 138.937 208.567 138.862 208.6C138.787 208.634 138.718 208.683 138.662 208.745C138.607 208.806 138.563 208.879 138.538 208.958C138.512 209.038 138.502 209.121 138.51 209.204L139.927 223.069C139.937 223.156 139.964 223.239 140.008 223.313C140.053 223.388 140.113 223.451 140.186 223.5C140.285 223.568 140.404 223.603 140.524 223.603ZM144.842 219.509C144.375 219.994 142.873 221.452 141.039 222.202L139.77 209.79C140.685 209.954 141.524 210.403 142.169 211.072C143.859 212.736 144.804 215.728 144.842 219.499V219.509Z" fill="black"/>
<path d="M194.262 145.377L195.141 144.585C194.897 144.318 192.711 142.001 191.007 142.909L191.565 143.956C192.269 143.574 193.712 144.773 194.262 145.377Z" fill="black"/>
</g>
<path d="M126.942 20.0775C128.268 20.7809 129.291 21.766 130.019 23.0349C130.745 24.3038 131.109 25.7694 131.109 27.4275C131.109 29.0856 130.747 30.5329 130.019 31.8099C129.293 33.087 128.264 34.0761 126.93 34.7795C125.596 35.4829 124.053 35.8336 122.296 35.8336H116V19.0234H122.296C124.068 19.0234 125.616 19.3741 126.94 20.0775H126.942ZM125.649 31.0194C126.51 30.1741 126.942 28.9761 126.942 27.4275C126.942 25.8788 126.51 24.6748 125.649 23.8113C124.787 22.9498 123.581 22.518 122.032 22.518H120.093V32.2863H122.032C123.581 32.2863 124.785 31.8647 125.649 31.0174V31.0194Z" fill="white"/>
<path d="M137.501 22.3032V25.7025H142.984V28.8626H137.501V32.5498H143.702V35.8295H133.406V19.0234H143.702V22.3032H137.501Z" fill="white"/>
<path d="M167.571 32.6714H172.935V35.8315H163.477V19.0234H167.571V32.6714Z" fill="white"/>
<path d="M189.308 19.0234L183.49 30.2775V35.8315H179.396V30.2775L173.578 19.0234H178.222L181.477 26.0633L184.711 19.0234H189.308Z" fill="white"/>
<path d="M206.005 35.8315H201.911L195.063 25.4633V35.8315H190.969V19.0234H195.063L201.911 29.4383V19.0234H206.005V35.8315Z" fill="white"/>
<path d="M161.267 35.8122L157.667 27.4284L161.267 19L153.432 23.0095L145.594 19.0041L149.198 27.4284L145.594 35.8081L153.432 31.2574L161.267 35.8122Z" fill="url(#paint2_linear_21459_3590)"/>
<defs>
<linearGradient id="paint0_linear_21459_3590" x1="242.004" y1="170.5" x2="0.0039089" y2="140" gradientUnits="userSpaceOnUse">
<stop stop-opacity="0.8"/>
<stop offset="1" stop-opacity="0"/>
</linearGradient>
<linearGradient id="paint1_linear_21459_3590" x1="39.5" y1="157.5" x2="235.5" y2="177.5" gradientUnits="userSpaceOnUse">
<stop stop-color="#3E4147" stop-opacity="0"/>
<stop offset="1" stop-color="#979EAD" stop-opacity="0.25"/>
</linearGradient>
<linearGradient id="paint2_linear_21459_3590" x1="153.43" y1="35.8122" x2="153.43" y2="19" gradientUnits="userSpaceOnUse">
<stop stop-color="#8A2BE2"/>
<stop offset="1" stop-color="#FF69B4"/>
</linearGradient>
<clipPath id="clip0_21459_3590">
<rect width="225" height="275" fill="white" transform="matrix(-1 0 0 1 225 0)"/>
</clipPath>
</defs>
</svg>
