<svg width="24" height="24" viewBox="0 0 24 24" fill="none" xmlns="http://www.w3.org/2000/svg">
<path d="M12 24C18.6274 24 24 18.6274 24 12C24 5.37258 18.6274 0 12 0C5.37258 0 0 5.37258 0 12C0 18.6274 5.37258 24 12 24Z" fill="#627EEA"/>
<path d="M12.3742 2.99841V9.65123L17.9969 12.1641L12.3742 2.99841Z" fill="white" fill-opacity="0.5"/>
<path d="M12.3736 2.99841L6.75087 12.1641L12.3736 9.65123V2.99841Z" fill="white"/>
<path d="M12.3742 16.4745V20.995L18.0002 13.2104L12.3742 16.4745Z" fill="white" fill-opacity="0.5"/>
<path d="M12.3736 20.995V16.4745L6.75087 13.2104L12.3736 20.995Z" fill="white"/>
<path d="M12.3742 15.428L17.9969 12.164L12.3742 9.65112V15.428Z" fill="white" fill-opacity="0.2"/>
<path d="M6.75087 12.164L12.3736 15.428V9.65112L6.75087 12.164Z" fill="white" fill-opacity="0.6"/>
</svg>
