<svg width="24" height="24" viewBox="0 0 24 24" fill="none" xmlns="http://www.w3.org/2000/svg">
<path d="M19.8473 5.18803C19.5119 4.33552 18.9599 3.58782 18.3379 2.95891C17.6811 2.34399 16.9194 1.84785 16.0879 1.50545C15.5498 1.28882 14.9838 1.14208 14.4038 1.0722C12.3424 0.771725 10.1622 1.40762 8.58294 3.00783C6.75912 4.84563 6.12322 7.53594 6.92682 10.0446V10.0655C6.4237 10.387 5.9625 10.7643 5.55022 11.1976C4.91433 11.8684 4.40422 12.651 4.0688 13.5035C3.74038 14.363 3.57966 15.2715 3.58664 16.1869C3.58664 17.1163 3.7823 18.0037 4.14567 18.8283C4.48109 19.6808 5.03312 20.4285 5.65504 21.0574C6.3119 21.6723 7.07357 22.1684 7.90512 22.5109C8.72269 22.8463 9.60316 23 10.4906 23C10.3648 23 10.2391 23 10.1203 22.986C12.0629 23.0908 13.9496 22.3571 15.3122 20.9735C17.136 19.1427 17.7859 16.4454 16.9893 13.9927C17.5274 13.6643 18.0165 13.266 18.4497 12.8118C19.0856 12.1409 19.5957 11.3583 19.9312 10.5058C20.2596 9.64626 20.4203 8.73785 20.4133 7.82244C20.4133 6.91402 20.2247 6.01259 19.8543 5.18104M13.8797 5.68417C13.8308 5.46754 13.8098 5.24393 13.8098 5.02032C14.0614 5.06225 14.299 5.13912 14.5296 5.23695C14.865 5.3767 15.1515 5.60031 15.3751 5.86585C15.5917 6.13838 15.7804 6.43186 15.8922 6.76029C16.011 7.09571 16.0459 7.43112 16.0459 7.76654C16.011 8.40243 15.7385 9.00338 15.2912 9.45759L13.8797 5.68417ZM15.4869 9.98867C15.5288 9.94674 15.5708 9.90481 15.6127 9.86289C15.8992 9.56241 16.0809 9.23398 16.2346 8.85664C16.3883 8.4793 16.4163 8.06702 16.4163 7.69666C16.4163 7.28438 16.3115 6.91402 16.1577 6.57861C16.004 6.24319 15.7524 5.93573 15.4939 5.68417C15.2353 5.46056 14.8999 5.22996 14.5715 5.11815C14.3339 5.0343 14.0684 4.99237 13.8028 4.9784C13.8098 4.54515 13.9216 4.11191 14.1243 3.72758C14.4248 3.78348 14.7113 3.87432 14.9978 4.00709C15.5149 4.2307 15.9202 4.56611 16.2835 4.93647C16.6189 5.34875 16.9194 5.78898 17.1011 6.27813C17.2828 6.76728 17.3596 7.27739 17.3596 7.80148C17.3596 8.32556 17.2548 8.84965 17.0242 9.29687C16.8425 9.76506 16.5491 10.1843 16.1787 10.5197C16.0599 10.6315 15.9341 10.7294 15.7944 10.8202L15.4869 9.98867ZM15.99 11.3303C16.1857 11.1836 16.3674 11.0299 16.5351 10.8621C16.9124 10.4499 17.2408 9.93276 17.4225 9.40868C17.6461 8.84965 17.723 8.28364 17.723 7.7316C17.723 7.17956 17.5833 6.61355 17.3596 6.09645C17.136 5.58634 16.8146 5.13213 16.4093 4.75479C16.004 4.39142 15.5638 4.08395 15.0467 3.90227C14.7532 3.80444 14.4597 3.72758 14.1522 3.69264C14.278 3.45505 14.4387 3.23144 14.6344 3.03578C14.7881 2.88205 14.9488 2.75627 15.1235 2.64446C15.2633 2.69338 15.3961 2.74928 15.5288 2.81217C16.1717 3.0847 16.7517 3.48999 17.2269 4.0001C17.709 4.48925 18.0724 5.12514 18.331 5.75404C18.5895 6.42488 18.6943 7.13065 18.6943 7.80148C18.6664 8.49327 18.5126 9.17109 18.2541 9.81397C17.9955 10.4079 17.5902 10.96 17.1081 11.4491C16.8565 11.7007 16.584 11.9243 16.2905 12.113L15.997 11.3373L15.99 11.3303ZM8.78558 21.3579C8.67378 21.3159 8.56896 21.274 8.46414 21.2181C7.82126 20.9456 7.24128 20.5403 6.7661 20.0302C6.28394 19.541 5.92058 18.9051 5.66203 18.2762C5.41745 17.6264 5.29167 16.9276 5.29866 16.2358C5.32661 15.544 5.47336 14.8662 5.73889 14.2233C5.99744 13.6293 6.40274 13.0773 6.8849 12.5881C7.11549 12.3575 7.36706 12.1479 7.63958 11.9662L7.94006 12.7489C7.77235 12.8816 7.61163 13.0214 7.4579 13.1681C7.08056 13.5804 6.75213 14.0975 6.57044 14.6216C6.34683 15.1806 6.26997 15.7466 6.26997 16.2987C6.26997 16.8507 6.40972 17.4097 6.63334 17.9338C6.85695 18.4439 7.17839 18.8981 7.58368 19.2755C7.98897 19.6389 8.42921 19.9463 8.9463 20.128C9.21184 20.2188 9.48437 20.2887 9.75689 20.3237C9.63111 20.5543 9.47039 20.7639 9.28871 20.9526C9.13498 21.1063 8.96727 21.2391 8.78558 21.3509M8.99522 20.0162C8.48511 19.7856 8.07283 19.4502 7.70946 19.0868C7.37404 18.6745 7.08056 18.2343 6.89188 17.7452C6.71719 17.256 6.62635 16.7389 6.63334 16.2218C6.63334 15.6977 6.73815 15.1736 6.96875 14.7264C7.15043 14.2512 7.45091 13.839 7.81428 13.5035C7.91909 13.4127 8.02391 13.3288 8.13572 13.245L8.45716 14.0905C8.45716 14.0905 8.40824 14.1394 8.38728 14.1674C8.10078 14.4679 7.91909 14.7963 7.76536 15.1736C7.61163 15.551 7.58368 15.9633 7.58368 16.3336C7.58368 16.7459 7.6885 17.1093 7.84223 17.4447C7.99596 17.7801 8.24752 18.0876 8.50607 18.3391C8.76462 18.5627 9.10004 18.7933 9.42846 18.8981C9.65207 18.975 9.88966 19.0169 10.1272 19.0379C10.1063 19.4711 9.99448 19.8974 9.78484 20.2817C9.51232 20.2258 9.24678 20.135 8.99522 20.0162ZM10.0713 18.3251C10.1203 18.5488 10.1342 18.7724 10.1272 18.996C9.90364 18.9471 9.68003 18.8842 9.47039 18.7933C9.13498 18.6536 8.84847 18.43 8.62486 18.1644C8.40824 17.8919 8.21957 17.5984 8.11475 17.27C7.99596 16.9346 7.96102 16.5992 7.96102 16.2637C7.99596 15.6488 8.24752 15.0688 8.66679 14.6216L10.0783 18.3321L10.0713 18.3251ZM5.82275 20.9456C5.18686 20.3027 4.75361 19.569 4.4182 18.7514C4.13169 17.9688 3.97796 17.0743 3.97796 16.2218C4.01989 15.3693 4.20157 14.5168 4.53699 13.7341C4.8724 12.9445 5.38251 12.2387 5.97648 11.6448C6.33286 11.2884 6.73815 10.974 7.17839 10.7154L7.40898 11.3094C7.05959 11.54 6.73815 11.7985 6.45864 12.113C5.94154 12.658 5.54323 13.3009 5.2777 14.0067C5.01915 14.7055 4.91433 15.4601 4.91433 16.2008C4.95626 16.9346 5.09601 17.6823 5.39649 18.3531C5.69697 19.0239 6.12322 19.6319 6.6543 20.142C7.17839 20.6381 7.78633 21.0294 8.45716 21.302C8.55499 21.3369 8.64583 21.3718 8.74366 21.4068C8.30342 21.6653 7.80729 21.8121 7.30417 21.826C7.12248 21.826 6.9408 21.8121 6.7661 21.7701C6.43069 21.5326 6.12322 21.26 5.84371 20.9596M19.47 10.2961C19.1345 11.0858 18.6244 11.7915 18.0305 12.3855C17.6531 12.7628 17.2199 13.0913 16.7587 13.3638L16.5351 12.7698C16.9124 12.5322 17.2548 12.2457 17.5623 11.9243C18.0794 11.3723 18.4847 10.7364 18.7432 10.0306C19.0018 9.33181 19.1066 8.58411 19.1066 7.83642C19.0647 7.1027 18.9249 6.355 18.6244 5.68417C18.0305 4.3425 16.9334 3.28734 15.5708 2.74229C15.445 2.69338 15.3192 2.65145 15.1864 2.61651C15.8083 2.24616 16.5491 2.12038 17.2618 2.2811C17.5972 2.52567 17.9047 2.79819 18.1842 3.09168C18.8201 3.72758 19.2533 4.4613 19.5888 5.28586C19.8753 6.06151 20.029 6.96294 20.029 7.81545C19.9871 8.66797 19.8054 9.52747 19.47 10.3031" fill="#DD1438"/>
</svg>
