<svg width="24" height="24" viewBox="0 0 24 24" fill="none" xmlns="http://www.w3.org/2000/svg">
<path d="M16.3886 14.3268C16.3886 11.9999 14.9924 11.202 12.2 10.8696C10.2054 10.6036 9.80646 10.0718 9.80646 9.14089C9.80646 8.20998 10.4714 7.61176 11.8011 7.61176C12.9978 7.61176 13.6627 8.01068 13.9951 9.00797C14.0616 9.20743 14.2611 9.34035 14.4606 9.34035H15.5242C15.7902 9.34035 15.9897 9.14089 15.9897 8.87505V8.80851C15.7237 7.34576 14.5269 6.21554 12.9978 6.08262V4.48695C12.9978 4.22095 12.7983 4.0215 12.466 3.95496H11.4687C11.2027 3.95496 11.0032 4.15441 10.9367 4.48695V6.01609C8.94209 6.28208 7.67895 7.61176 7.67895 9.27397C7.67895 11.468 9.00862 12.3322 11.8011 12.6648C13.6627 12.9972 14.2611 13.3961 14.2611 14.4599C14.2611 15.5237 13.3302 16.255 12.067 16.255C10.3383 16.255 9.73992 15.5236 9.54046 14.5263C9.47408 14.2604 9.27462 14.1274 9.07516 14.1274H7.94479C7.67895 14.1274 7.47949 14.3268 7.47949 14.5928V14.6594C7.74533 16.3214 8.80917 17.5182 11.0032 17.8507V19.4464C11.0032 19.7122 11.2027 19.9117 11.5351 19.9782H12.5323C12.7983 19.9782 12.9978 19.7788 13.0643 19.4464V17.8507C15.0589 17.5182 16.3886 16.122 16.3886 14.3268Z" fill="#2775CA"/>
<path d="M8.6092 21.308C3.42326 19.4465 0.763759 13.6622 2.69197 8.54266C3.68926 5.75024 5.88331 3.62273 8.6092 2.62543C8.8752 2.49251 9.00812 2.29305 9.00812 1.96052V1.02976C9.00812 0.763763 8.8752 0.564305 8.6092 0.497925C8.54266 0.497925 8.40974 0.497924 8.3432 0.564304C2.02705 2.55889 -1.43029 9.27412 0.564299 15.5903C1.76105 19.3134 4.62002 22.1724 8.3432 23.3692C8.6092 23.5021 8.8752 23.3692 8.94158 23.1032C9.00812 23.0368 9.00812 22.9702 9.00812 22.8373V21.9064C9.00812 21.707 8.80866 21.4411 8.6092 21.308ZM15.6568 0.564304C15.3908 0.431385 15.1248 0.564305 15.0584 0.830303C14.9919 0.896843 14.9919 0.963223 14.9919 1.0963V2.02706C14.9919 2.29306 15.1913 2.55889 15.3908 2.69197C20.5767 4.55348 23.2362 10.3378 21.308 15.4573C20.3107 18.2498 18.1167 20.3773 15.3908 21.3746C15.1248 21.5075 14.9919 21.707 14.9919 22.0395V22.9702C14.9919 23.2362 15.1248 23.4357 15.3908 23.5021C15.4573 23.5021 15.5903 23.5021 15.6568 23.4357C21.973 21.4411 25.4303 14.7259 23.4357 8.40974C22.2389 4.62002 19.3134 1.76106 15.6568 0.564304Z" fill="#2775CA"/>
</svg>
